# xmcd
#
# Track frame offsets:
#	150
#	20175
#	43425
#	68025
#	87825
#
# Disc length: 1480 seconds
#
# Revision: 1
# Processed by: cddbd v1.5.1PL0 Copyright (c) Steve Scherf et al.
# Submitted via: CDex 1.50Beta5
#
DISCID=4205c605
DTITLE=飯島真理 - Eternal Love 2003
DYEAR=2003
DGENRE=Game
TTITLE0=Eternal Love 2003
TTITLE1=Fly Away
TTITLE2=Eternal Love <Summer Breeze Mix>
TTITLE3=Eternal Love 2003 <Instrumental>
TTITLE4=Fly Away <Instrumental>
EXTD=
EXTT0=
EXTT1=
EXTT2=
EXTT3=
EXTT4=
PLAYORDER=
